<svg version="1.2" xmlns="http://www.w3.org/2000/svg" viewBox="0 0 1080 1080" width="1080" height="1080"><style>.a{fill:#cf3e3e}</style><path fill-rule="evenodd" class="a" d="m661.2 1025.3c-13.7 6.7-26.8 13.9-40.7 19.3-11.9 4.6-24.5 7.4-37 10.3-22.3 5.3-45.1 3.5-67.6 2.8-19.9-0.7-39.2-6.1-57.8-13.2-18.3-7-35.6-16-51.8-27.3-16.9-11.9-31.5-26.2-45.2-41.5-14.3-15.9-25-34.1-33.9-53.3-8.4-18.1-13.7-37.2-17.4-56.9-3.8-19.9-3-39.8-2.5-59.7 0.2-11.8 3.3-23.6 5.2-35.8-53.6 12.3-106.1 8.3-156.2-15.4-49.9-23.7-88.4-60.4-110.9-110.8-38.2-85.5-31.6-168.8 26.3-243 61.4-78.8 144.5-103.9 241.7-84.5-12-47.5-10-94.8 7.1-141.2 17.2-46.6 47.1-83.9 87.9-111.6 81.4-55.4 187.7-52.2 263.4 1 85.7 60.2 116.7 159.4 93.4 250.4 89.6-19.4 168.1 0.3 232.2 67.3 36.9 38.5 57.6 85.3 61.4 138.4 5.7 79.9-21.2 147.8-82.8 199.3-61.2 51.3-132.4 64.8-210 47 26.6 112.2-25 209-104.8 258.4zm-100.7-5.3c2.1-0.3 4.1-0.8 6.2-1 19.9-2.1 38.7-8.3 56.6-16.8 27.6-13.2 51-31.7 69.9-55.9 13.9-17.8 24.7-37.2 31.9-58.6 6.9-20.8 10.3-41.9 10.1-63.8-0.2-14.2-1.8-28.1-4.7-41.9-4.7-21.6-14.6-41.2-24.1-61.1-3.8-8.1-7.6-16.3-11.7-25.1 1.5 0.3 2.4 0.2 3.1 0.6 10.1 4.7 20.2 9.8 30.5 14.2 14.7 6.4 29.3 13.1 44.5 18.1 11.4 3.7 23.5 6.1 35.5 7 13.3 1 26.9 0.4 40.2-0.9 11.3-1.1 22.6-3.7 33.7-6.6 15.6-4 30.3-10.8 43.9-19.4 11.4-7.3 22.4-15.5 32.6-24.4 7.6-6.5 14-14.4 20.4-22.1 13.5-16.3 23.6-34.5 30.9-54.3 5.1-13.8 8.1-28.1 10.2-42.7 2.3-15.6 2.4-31.2 0.6-46.7-1.7-15-5.5-29.7-10.6-44-8.4-23.2-20.6-44.1-36.8-62.4-13.7-15.7-29.8-28.7-47.9-39.4-28.7-17.2-59.9-26.2-93.1-27.6-12.2-0.5-24.5 1.6-36.7 2.9-19.4 2-37.3 9.1-54.9 17-14.2 6.4-28.2 13.3-42.3 19.9-1 0.5-2.1 0.8-3.9 1.4 7.3-15.8 13.9-30.8 21.1-45.5 11.4-23.4 17.3-48.2 19.1-74 1.1-14.1-0.2-28.2-2.7-42.2-3.4-19.3-8.9-37.9-18.2-55.1-6.6-12.1-14-24-22.8-34.5-10.5-12.5-22.2-24.4-34.8-34.7-12.9-10.5-28-18-43.5-24.5-22.7-9.5-46.4-14-70.8-14.8-8.6-0.2-17.4 0.7-26 2-11.2 1.8-22.5 3.9-33.5 7-21.2 5.9-40.4 16.1-58.3 29.1-14.7 10.6-27.9 22.8-38.9 37.2-11.7 15.3-21.2 32-28.4 50.1-7.7 19.4-11.9 39.6-12.8 60.3-0.4 10.3-0.1 20.6 1.1 30.8 1.1 10.3 3.2 20.7 5.8 30.9 5.5 22.4 16.6 42.6 26.4 63.3 2.1 4.6 4 9.2 5.9 13.8-7.5-2.4-14-5.4-20.6-8.3-13.6-6-27.1-12.5-41-17.8-21.6-8.2-44.1-12.3-67.3-11.5-5.9 0.2-11.9 0.2-17.7 1.1-12.1 1.9-24.3 3.8-36.1 6.9-21.7 5.6-41 16.3-59.3 29.1-12.9 9.1-24.7 19.5-34.6 31.8-13.5 16.7-24.7 34.9-32.7 54.9-8.5 21.3-12.6 43.4-13.9 66.1-0.3 6.1 0.3 12.2 1 18.3 1.1 10.4 1.8 21.1 4.3 31.3 6.1 25 16.5 48.2 31.5 69.3 10.4 14.5 22.4 27.6 36.3 38.7 15.6 12.2 32.4 22.6 51.1 29.6 21.1 7.9 42.7 13.4 65.1 13.7 12.8 0.1 25.6-1.5 38.3-2.9 17.1-1.9 33.1-7.8 48.7-14.7 13.2-5.8 26.3-11.8 39.5-17.6 1.1-0.4 2.6 0.1 4 0.2-2.9 6.8-5.6 12.8-8.1 18.9-6.6 15.9-13.7 31.7-19.5 48-5.3 14.6-7.2 30.2-8.2 45.7-1 15.8 1 31.4 3.9 47 4.1 22.7 12.4 43.9 24.6 63.4 12.7 20.4 27.8 38.7 47.6 53.1 15.9 11.7 32.6 21.7 51 28.8 17.8 6.8 36.3 10.7 55.1 12.1 11 0.8 22.2-0.5 34.2-0.8z"/><path fill-rule="evenodd" class="a" d="m570.7 452.2c7.1 8.8 13.8 17.4 20.8 25.7 11.9 14 26 25.7 41.9 34.7 14.2 8 29.3 14.4 44.1 21.4 5 2.3 10.3 4.3 16.8 7-4.6 2.3-8.2 4.5-12.1 5.9-18.9 7.3-37.4 15.4-54 27.2-8.7 6.2-16.9 13.3-25 20.3-17.6 15.3-30.9 34-41.5 54.6-6.7 13.1-11.9 26.9-17.8 40.4-0.6 1.4-1.7 2.6-3.3 5-13.2-35.9-28.9-69-55.4-95.9-26.5-26.8-59-43.4-93.7-57.1 15.8-7.6 31.2-14.7 46.2-22.5 13.7-7 26.1-16.1 37.6-26.6 12.3-11.2 23-23.9 32.4-37.6 10.7-15.6 18.3-32.8 25.3-50.2 2-5 4.3-9.8 6.2-14.1 10.4 20.6 20.8 41.1 31.5 61.8zm31.3 104.3c7.3-5 14.6-10 22.1-15.2-35-20.4-62.7-48.1-84-82.8-20.6 34-47.5 61.1-81.1 82.7 17.8 10.4 32.9 23 46.8 37 13.9 14 25.7 29.6 35.8 46.8 13.1-23.4 30.3-43.2 50.4-60.4 3-2.7 6.3-5.1 10-8.1z"/></svg>