<svg version="1.2" xmlns="http://www.w3.org/2000/svg" viewBox="0 0 24 24" width="24" height="24"><style>.a{fill:none}.b{fill:#f24f4f}</style><path class="a" d="m0 0h24v24h-24z"/><path fill-rule="evenodd" class="b" d="m10 7c0 1.4 0.4 2.7 1.2 3.9 0.8 1.2 1.9 2.1 3.2 2.6 1.2 0.5 2.7 0.6 4 0.4 1.4-0.3 2.6-1 3.6-2v0.1c0 5.5-4.5 10-10 10-5.5 0-10-4.5-10-10 0-5.5 4.5-10 10-10h0.1q-0.5 0.5-0.9 1.1-0.4 0.5-0.7 1.2-0.2 0.6-0.4 1.3-0.1 0.7-0.1 1.4zm-6 5c0 1.8 0.6 3.5 1.7 4.9 1.1 1.4 2.6 2.4 4.4 2.9 1.7 0.4 3.5 0.2 5.2-0.5 1.6-0.7 2.9-2 3.8-3.5-1.5 0.3-3.1 0.3-4.6-0.1-1.4-0.5-2.8-1.2-3.9-2.3-1.1-1.1-1.8-2.5-2.3-3.9-0.4-1.5-0.4-3.1-0.1-4.6q-0.9 0.6-1.7 1.3-0.8 0.7-1.4 1.7-0.5 0.9-0.8 2-0.3 1-0.3 2.1z"/></svg>